<svg width="380" height="314" viewBox="0 0 380 314" fill="none" xmlns="http://www.w3.org/2000/svg">
<path d="M85.464 130.82C86.4792 125.211 94.5208 125.211 95.536 130.82V130.82C96.3989 135.586 102.786 136.598 105.08 132.331V132.331C107.778 127.311 115.426 129.796 114.659 135.444V135.444C114.007 140.243 119.769 143.179 123.268 139.83V139.83C127.386 135.89 133.892 140.617 131.417 145.751V145.751C129.313 150.114 133.886 154.687 138.249 152.583V152.583C143.383 150.108 148.11 156.614 144.17 160.732V160.732C140.821 164.231 143.757 169.993 148.556 169.341V169.341C154.204 168.574 156.689 176.222 151.669 178.92V178.92C147.402 181.214 148.414 187.601 153.18 188.464V188.464C158.789 189.479 158.789 197.521 153.18 198.536V198.536C148.414 199.399 147.402 205.786 151.669 208.08V208.08C156.689 210.778 154.204 218.426 148.556 217.659V217.659C143.757 217.007 140.821 222.769 144.17 226.268V226.268C148.11 230.386 143.383 236.892 138.249 234.417V234.417C133.886 232.313 129.313 236.886 131.417 241.249V241.249C133.892 246.383 127.386 251.11 123.268 247.17V247.17C119.769 243.821 114.007 246.757 114.659 251.556V251.556C115.426 257.204 107.778 259.689 105.08 254.669V254.669C102.786 250.402 96.3989 251.414 95.536 256.18V256.18C94.5208 261.789 86.4792 261.789 85.464 256.18V256.18C84.6011 251.414 78.2137 250.402 75.9202 254.669V254.669C73.2216 259.689 65.5736 257.204 66.3411 251.556V251.556C66.9934 246.757 61.2313 243.821 57.7315 247.17V247.17C53.6137 251.11 47.108 246.383 49.5831 241.249V241.249C51.6867 236.886 47.1139 232.313 42.7505 234.417V234.417C37.6166 236.892 32.8899 230.386 36.8303 226.268V226.268C40.1793 222.769 37.2434 217.007 32.4435 217.659V217.659C26.796 218.426 24.311 210.778 29.3311 208.08V208.08C33.5977 205.786 32.586 199.399 27.8195 198.536V198.536C22.2112 197.521 22.2112 189.479 27.8195 188.464V188.464C32.586 187.601 33.5977 181.214 29.3311 178.92V178.92C24.311 176.222 26.796 168.574 32.4435 169.341V169.341C37.2434 169.993 40.1793 164.231 36.8303 160.732V160.732C32.8899 156.614 37.6166 150.108 42.7505 152.583V152.583C47.1139 154.687 51.6867 150.114 49.5831 145.75V145.75C47.108 140.617 53.6137 135.89 57.7315 139.83V139.83C61.2313 143.179 66.9934 140.243 66.3411 135.444V135.444C65.5736 129.796 73.2216 127.311 75.9202 132.331V132.331C78.2137 136.598 84.6011 135.586 85.464 130.82V130.82Z" fill="black"/>
<path d="M173.976 52.1998L177.957 59.745C182.514 68.3838 190.822 74.4194 200.446 76.0847L208.852 77.5391C233.017 81.7202 242.616 111.264 225.524 128.85L219.578 134.968C212.771 141.972 209.598 151.738 210.988 161.406L212.202 169.85C215.693 194.124 190.562 212.383 168.555 201.561L160.899 197.797C152.134 193.487 141.866 193.487 133.101 197.797L125.445 201.561C103.438 212.383 78.3068 194.124 81.7976 169.85L83.0119 161.406C84.4023 151.738 81.2291 141.972 74.4217 134.967L68.4759 128.85C51.3839 111.264 60.9831 81.7202 85.1478 77.5391L93.5539 76.0847C103.178 74.4194 111.486 68.3837 116.043 59.745L120.024 52.1998C131.468 30.5098 162.532 30.5099 173.976 52.1998Z" stroke="black"/>
<path d="M151.741 138.156V146.594C151.741 146.969 151.611 147.297 151.352 147.578C151.092 147.859 150.789 148 150.443 148H142.651C142.305 148 142.002 147.859 141.742 147.578C141.483 147.297 141.353 146.969 141.353 146.594V138.156C141.353 137.781 141.483 137.453 141.742 137.172C142.002 136.891 142.305 136.75 142.651 136.75H150.443C150.789 136.75 151.092 136.891 151.352 137.172C151.611 137.453 151.741 137.781 151.741 138.156ZM162 117.062C162 118.328 161.832 119.512 161.497 120.613C161.161 121.715 160.783 122.611 160.361 123.303C159.939 123.994 159.343 124.691 158.575 125.395C157.807 126.098 157.184 126.607 156.708 126.924C156.232 127.24 155.572 127.656 154.728 128.172C153.841 128.711 153.099 129.473 152.504 130.457C151.909 131.441 151.611 132.227 151.611 132.812C151.611 133.211 151.482 133.592 151.222 133.955C150.962 134.318 150.659 134.5 150.313 134.5H142.521C142.197 134.5 141.921 134.283 141.694 133.85C141.466 133.416 141.353 132.977 141.353 132.531V130.949C141.353 129.004 142.056 127.17 143.463 125.447C144.87 123.725 146.417 122.453 148.105 121.633C149.382 121 150.291 120.344 150.832 119.664C151.373 118.984 151.644 118.094 151.644 116.992C151.644 116.008 151.141 115.141 150.134 114.391C149.128 113.641 147.965 113.266 146.644 113.266C145.238 113.266 144.069 113.605 143.138 114.285C142.381 114.871 141.223 116.219 139.665 118.328C139.383 118.703 139.048 118.891 138.658 118.891C138.399 118.891 138.128 118.797 137.847 118.609L132.523 114.215C132.241 113.98 132.073 113.688 132.019 113.336C131.965 112.984 132.025 112.656 132.198 112.352C135.661 106.117 140.682 103 147.261 103C148.993 103 150.735 103.363 152.488 104.09C154.241 104.816 155.821 105.789 157.228 107.008C158.635 108.227 159.782 109.721 160.669 111.49C161.556 113.26 162 115.117 162 117.062Z" fill="black"/>
<path d="M97 177.5C97 182.255 96.056 186.412 94.6663 189.269C93.1774 192.33 91.6935 193 91 193C90.3065 193 88.8226 192.33 87.3337 189.269C85.944 186.412 85 182.255 85 177.5C85 172.745 85.944 168.588 87.3337 165.731C88.8226 162.67 90.3065 162 91 162C91.6935 162 93.1774 162.67 94.6663 165.731C96.056 168.588 97 172.745 97 177.5Z" stroke="white" stroke-width="6"/>
<path d="M121 203.5C121 210.159 117.884 216.554 112.319 221.318C106.754 226.081 99.1808 228.836 91.2182 228.993C83.2557 229.15 75.5357 226.696 69.7084 222.157C63.8811 217.617 60.4088 211.352 60.0338 204.701L66.9053 204.43C67.1957 209.581 69.8848 214.433 74.3978 217.949C78.9108 221.464 84.8896 223.365 91.0562 223.243C97.2229 223.122 103.088 220.988 107.398 217.299C111.708 213.61 114.121 208.657 114.121 203.5H121Z" fill="white"/>
<path d="M321 208.5L323.768 210.642L325.573 208.309L323.58 206.135L321 208.5ZM256 292.5L254.249 295.53L256.897 297.06L258.768 294.642L256 292.5ZM166 240.5L186.196 275.506L206.415 240.513L166 240.5ZM271.5 154.5L268.167 153.432L267.547 155.367L268.92 156.865L271.5 154.5ZM284 115.5L284 112L281.446 112L280.667 114.432L284 115.5ZM318.232 206.358L253.232 290.358L258.768 294.642L323.768 210.642L318.232 206.358ZM257.751 289.469L195.026 253.228L191.524 259.289L254.249 295.53L257.751 289.469ZM268.92 156.865L318.42 210.865L323.58 206.135L274.08 152.135L268.92 156.865ZM321 112L284 112L284 119L321 119L321 112ZM280.667 114.432L268.167 153.432L274.833 155.568L287.333 116.568L280.667 114.432Z" fill="black"/>
<circle cx="329.5" cy="114.5" r="9" stroke="black"/>
</svg>
